<svg width="3711" height="3710" viewBox="0 0 3711 3710" fill="none" xmlns="http://www.w3.org/2000/svg">
<g clip-path="url(#clip0_335_2625)">
<mask id="mask0_335_2625" style="mask-type:luminance" maskUnits="userSpaceOnUse" x="0" y="0" width="3711" height="3710">
<path d="M3710.5 0H0.5V3710H3710.5V0Z" fill="white"/>
</mask>
<g mask="url(#mask0_335_2625)">
<path opacity="0.3" d="M2903.75 2798.88C2848 2857.57 2795.25 2895.42 2753.58 2925.32C2263.7 3276.82 1684.04 3174.36 1560.85 3149.34C1378.93 3112.39 1027.29 3040.97 773.055 2742C388.423 2289.68 448.316 1577.06 746.662 1106.65C801.234 1020.61 1089.5 543.033 1675.4 466.445C2029.98 420.095 2443.31 513.578 2742.63 764.348C3370.93 1290.74 3326.2 2354.14 2903.75 2798.88Z" fill="url(#paint0_linear_335_2625)"/>
<path d="M3194.12 852.837C3191.21 836.842 3168.75 835.366 3163.84 850.867C3116.46 1000.72 2979.89 1389.78 2782.72 1592.15C2461.68 1921.65 2237.37 2466.43 2426.53 2758.6C2426.53 2758.6 3510.42 2595.66 3194.12 852.837Z" fill="url(#paint1_linear_335_2625)"/>
<path opacity="0.43" d="M3178.09 1065.5C3177.25 1070.39 3176.16 1074.36 3175.18 1078.68L3172.02 1091.34L3165.42 1116.58C3160.91 1133.36 3156.14 1150.08 3151.37 1166.79C3141.71 1200.18 3131.64 1233.44 3121.26 1266.62C3100.38 1332.93 3077.71 1398.66 3054.05 1464.04C3030.48 1529.46 3005.08 1594.22 2978.33 1658.41C2951.51 1722.58 2923.78 1786.39 2893.97 1849.26C2834.59 1975.09 2768.32 2097.8 2693.64 2215.35C2655.69 2273.71 2616.19 2331.12 2573.45 2386.11C2530.33 2440.77 2484.86 2493.63 2435.74 2542.93C2434.68 2544 2432.94 2544.01 2431.87 2542.94C2430.82 2541.9 2430.79 2540.22 2431.78 2539.14L2431.81 2539.12C2478.81 2488.13 2522.97 2434.71 2564.43 2379.23C2606.04 2323.87 2644.4 2266.13 2681.2 2207.48C2717.98 2148.8 2752.38 2088.64 2785.41 2027.75C2818.42 1966.84 2848.89 1904.58 2879 1842.18C2938.71 1717.07 2991.71 1588.82 3041.14 1459.25C3065.72 1394.4 3089 1329.05 3111.11 1263.31C3122.21 1230.45 3133.02 1197.49 3143.42 1164.4L3158.62 1114.65L3165.96 1089.71L3169.49 1077.21C3170.58 1073.1 3171.83 1068.7 3172.63 1065.06L3172.76 1064.46C3173.09 1062.99 3174.54 1062.07 3176 1062.39C3177.42 1062.7 3178.33 1064.08 3178.09 1065.5Z" fill="white"/>
<path d="M2681.27 492.162C2674.25 478.285 2653.24 483.061 2652.98 498.613C2650.4 648.966 2631.29 1043.01 2505.69 1282.38C2301.17 1672.12 2244.09 2232.91 2497.25 2449.24C2497.25 2449.24 3446.79 2004.14 2681.27 492.162Z" fill="url(#paint2_linear_335_2625)"/>
<path opacity="0.43" d="M2706.07 699.233C2706.92 703.914 2707.24 707.83 2707.78 712.033L2709.09 724.455L2711.44 749.3C2712.9 765.87 2714.09 782.454 2715.29 799.04C2717.56 832.218 2719.42 865.422 2720.98 898.642C2723.96 965.09 2725.15 1031.61 2725.33 1098.13C2725.61 1164.66 2724.02 1231.2 2721.02 1297.67C2717.96 1364.14 2713.96 1430.59 2707.78 1496.88C2695.67 1629.45 2676.33 1761.49 2647.74 1891.63C2632.76 1956.53 2616.07 2021.08 2595.67 2084.52C2574.82 2147.79 2551.27 2210.21 2523.27 2270.63C2522.65 2271.96 2521.06 2272.54 2519.72 2271.92C2518.42 2271.32 2517.83 2269.8 2518.38 2268.48L2518.39 2268.45C2543.89 2207.2 2566.06 2144.7 2585.12 2081.24C2604.36 2017.83 2619.89 1953.36 2633.73 1888.58C2647.53 1823.78 2658.73 1758.43 2668.44 1692.88C2678.14 1627.3 2685.1 1561.36 2691.71 1495.39C2704.36 1363.37 2709.95 1230.73 2711.91 1098.06C2712.75 1031.71 2712.25 965.344 2710.58 899.001C2709.8 865.828 2708.71 832.658 2707.21 799.506L2704.57 749.805L2703 724.979L2702.08 712.588C2701.71 708.536 2701.38 704.168 2700.92 700.646L2700.84 700.051C2700.65 698.602 2701.67 697.272 2703.12 697.081C2704.52 696.895 2705.82 697.854 2706.07 699.233Z" fill="white"/>
<path d="M867.393 650.448C856.762 1079.28 822.284 2558.48 838.743 3082.66C840.487 3138.2 885.004 3182.77 940.535 3184.59C1215.19 3193.57 2005.29 3216.35 2454.53 3197.51C2548.1 3193.58 2622.51 3117.79 2624.45 3024.16C2633.79 2574.04 2654.38 1308.05 2605.43 728.091C2599.56 658.604 2545.02 603.268 2475.64 596.326C2176.53 566.404 1382.09 493.262 993.978 518.448C923.98 522.99 869.131 580.325 867.393 650.448Z" fill="url(#paint3_linear_335_2625)"/>
<path d="M960.93 782.016C946.146 1128.15 899.515 2279.64 914.315 2705.44C916.478 2767.68 965.531 2818 1027.7 2821.64C1283.66 2836.62 1940.18 2869.65 2315.62 2839.58C2383.22 2834.17 2436.27 2779.5 2439.92 2711.77C2458.95 2358.65 2513.57 1286.44 2499.39 865.418C2497.12 798.252 2445.09 743.4 2378.16 737.39C2101.25 712.527 1390.05 653.37 1071.01 670.777C1011.12 674.044 963.49 722.093 960.93 782.016Z" fill="url(#paint4_linear_335_2625)"/>
<path d="M1517.16 593.38C1517.16 606.539 1527.41 617.391 1540.55 618.079C1605.42 621.476 1788.17 631.088 1869.84 635.828C1885.94 636.762 1898.58 622.287 1895.53 606.449L1895.01 603.746C1892.92 592.939 1883.96 584.804 1873 583.8C1817.79 578.742 1651.21 564.715 1540.84 568.655C1527.59 569.128 1517.16 580.114 1517.16 593.38Z" fill="url(#paint5_linear_335_2625)"/>
<path d="M1025.73 3236.73C993.383 3239.53 937.241 3244.07 892.98 3246.02C866.374 3247.19 851.057 3244.59 842.235 3241.05C842.25 3242.05 842.278 3242.99 842.317 3243.86C842.526 3248.52 846.311 3252.24 851.015 3252.51C934.647 3257.18 1001.16 3254.12 1024.84 3252.68C1029.73 3252.38 1032.65 3247.06 1030.15 3242.89C1028.9 3240.8 1027.38 3238.76 1025.73 3236.73Z" fill="url(#paint6_linear_335_2625)"/>
<path d="M892.98 3246.02C937.24 3244.07 993.383 3239.53 1025.73 3236.73C993.928 3197.71 892.98 3171.41 892.98 3171.41H864.469C844.86 3199.68 842.02 3226.59 842.235 3241.05C851.057 3244.59 866.374 3247.19 892.98 3246.02Z" fill="url(#paint7_linear_335_2625)"/>
<path d="M859.669 3124.87L862.337 3177.67C862.626 3183.38 866.906 3188.19 872.631 3189.01C878.328 3189.82 885.958 3189.92 894.048 3187.23C899.025 3185.57 902.721 3181.38 903.638 3176.26L912.857 3124.87H859.669Z" fill="url(#paint8_linear_335_2625)"/>
<path d="M489.352 3245.62C475.324 3243.67 468.977 3236.38 466.315 3228.59C466.297 3228.66 466.28 3228.73 466.262 3228.8C464.198 3237.02 468.983 3245.53 478.548 3249.58C490.11 3254.48 502.751 3255.31 512.565 3254.91C523.094 3254.48 532.759 3250.12 538.071 3243.15L538.151 3243.04C527.583 3248.27 512.747 3248.89 489.352 3245.62Z" fill="url(#paint9_linear_335_2625)"/>
<path d="M555.493 3124.53H531.981C496.167 3123.8 473.677 3199.34 466.316 3228.59C468.977 3236.38 475.324 3243.67 489.353 3245.62C512.748 3248.89 527.583 3248.27 538.152 3243.04C557.501 3217.58 567.093 3180.29 571.704 3158.53C576.948 3133.78 555.493 3124.53 555.493 3124.53Z" fill="url(#paint10_linear_335_2625)"/>
<path d="M535.003 3075.53L521.947 3127.45C520.346 3133.82 523.394 3140.41 529.28 3143.43C536.584 3147.18 546.867 3151.11 556.317 3149.97C560.761 3149.44 564.454 3146.31 565.922 3142.12L585.09 3087.49L535.003 3075.53Z" fill="url(#paint11_linear_335_2625)"/>
<path d="M519.43 3090.53C535.674 3104.94 588.509 3106.85 588.509 3106.85C778.829 2650.06 856.683 2585.17 856.683 2585.17C829.202 2757.58 852.252 3139.28 852.252 3139.28C883.658 3153.14 924.149 3139.28 924.149 3139.28C926.7 2857.02 970.085 2610.86 1021.34 2416.79C892.704 2413.9 824.298 2369.88 801.961 2352.21C694.736 2525.08 519.43 3090.53 519.43 3090.53Z" fill="url(#paint12_linear_335_2625)"/>
<path d="M834.629 1826.91C810.282 1948.35 819.008 2165.72 824.739 2264.87C826.35 2292.73 806.897 2331.36 791.173 2357.72C788.707 2361.85 790.229 2367.15 794.511 2369.35C820.836 2382.88 910.019 2424.81 1013.38 2430.02C1020.27 2430.37 1026.43 2425.68 1028.21 2419.01C1104.88 2132.73 1193.94 1949.8 1193.94 1949.8C1095.62 1792.79 834.629 1826.91 834.629 1826.91Z" fill="url(#paint13_linear_335_2625)"/>
<path d="M869.669 2574.35C868.589 2574.35 867.493 2574.06 866.502 2573.46C863.63 2571.7 862.719 2567.96 864.466 2565.09C865.49 2563.41 890.109 2523.62 939.927 2499.58C942.954 2498.13 946.6 2499.38 948.067 2502.42C949.528 2505.45 948.257 2509.1 945.225 2510.55C898.782 2532.97 875.112 2571.05 874.877 2571.43C873.729 2573.31 871.723 2574.35 869.669 2574.35Z" fill="url(#paint14_linear_335_2625)"/>
<path d="M681.91 2175.46C689.731 2232.03 712.837 2293.74 759.06 2359.29L776.631 2344.97C776.631 2344.97 756.347 2262.67 767.878 2169.27C739.365 2163.71 705.69 2169.44 681.91 2175.46Z" fill="url(#paint15_linear_335_2625)"/>
<path d="M861.824 1976.76L834.629 1826.91C834.629 1826.91 652.93 1965.8 681.91 2175.46C705.69 2169.44 739.365 2163.71 767.879 2169.27C776.186 2101.99 800.999 2028.95 861.824 1976.76Z" fill="url(#paint16_linear_335_2625)"/>
<path d="M1193.94 1949.8L1123.8 2100.85C1135.14 2192.04 1184.13 2231.47 1236.95 2246.59C1240.24 2205.03 1250.75 2171.45 1260.5 2148.23C1193.01 2078.55 1193.94 1949.8 1193.94 1949.8Z" fill="url(#paint17_linear_335_2625)"/>
<path d="M1260.5 2148.23C1250.75 2171.45 1240.24 2205.03 1236.95 2246.59C1377.87 2301.27 1415.16 2195.23 1415.16 2195.23L1389.11 2190.64C1330.3 2196.83 1289.21 2177.87 1260.5 2148.23Z" fill="url(#paint18_linear_335_2625)"/>
<path d="M1129.32 1763.32L1095.46 1887.79C1091.65 1901.77 1076.53 1909.28 1063.07 1903.9C1048.55 1898.1 1030.13 1890.18 1014.27 1881.61C997.344 1872.47 992.048 1850.7 1002.76 1834.72L1073.16 1729.76L1129.32 1763.32Z" fill="url(#paint19_linear_335_2625)"/>
<path d="M1479.75 2111.94L612.129 2427.72C575.741 2440.96 558.347 2482.4 574.378 2517.64L577.01 2523.43C591.194 2554.62 628.056 2568.3 659.151 2553.91L1501.6 2164.19L1479.75 2111.94Z" fill="url(#paint20_linear_335_2625)"/>
<path d="M1373 911.5L1424.8 922.7C1397.5 1034.7 1353.4 1142.5 1299.5 1213.9C1290.4 1204.8 1269.4 1188 1257.5 1180.3C1309.3 1115.2 1349.9 1014.4 1373 911.5ZM1361.1 1208.3L1412.2 1218.8C1390.5 1310.5 1352.7 1399.4 1310 1458.2C1299.5 1449.8 1277.1 1435.8 1264.5 1429.5C1307.9 1375.6 1341.5 1292.3 1361.1 1208.3ZM1366.7 1043.1H1681.7V1092.1H1346.4L1366.7 1043.1ZM1475.2 1063.4H1527.7V1488.3C1527.7 1518.4 1521.4 1533.8 1501.8 1542.2C1482.9 1551.3 1452.8 1552.7 1409.4 1552.7C1405.9 1538 1398.2 1514.9 1390.5 1499.5C1423.4 1500.9 1453.5 1500.2 1463.3 1500.2C1472.4 1500.2 1475.2 1497.4 1475.2 1488.3V1063.4ZM1578.1 1218.8L1625 1203.4C1665.6 1276.9 1700.6 1373.5 1712.5 1438.6L1662.8 1455.4C1651.6 1391 1616.6 1292.3 1578.1 1218.8ZM1666.3 1043.1H1673.3L1682.4 1041.7L1718.8 1049.4C1709 1101.2 1697.1 1161.4 1688 1199.2L1642.5 1190.8C1650.2 1155.8 1659.3 1097 1666.3 1050.8V1043.1ZM1232.3 910.8L1282 926.2C1235.8 1045.2 1163.7 1163.5 1088.1 1241.9C1082.5 1230 1067.8 1202 1058 1190.1C1127.3 1122.2 1193.1 1017.2 1232.3 910.8ZM1159.5 1091.4L1208.5 1041.7L1209.9 1042.4V1551.3H1159.5V1091.4Z" fill="#7F3CB6"/>
<path d="M1749.57 2076C1734.33 2076 1730.38 2066.33 1737.7 2047L1956.55 1472.63C1963.29 1454.76 1972.96 1445.82 1985.55 1445.82H2047.08C2059.67 1445.82 2069.34 1454.76 2076.08 1472.63L2294.93 2047C2302.25 2066.33 2298.3 2076 2283.06 2076H2238.24C2222.71 2076 2212.16 2068.82 2206.6 2054.47L2151.67 1909.01H1880.96L1826.03 2054.47C1820.46 2068.82 1809.92 2076 1794.39 2076H1749.57ZM1908.65 1836.94H2123.98L2056.74 1661.16C2050.59 1644.75 2044.44 1626.59 2038.29 1606.66C2032.43 1586.74 2025.4 1558.47 2017.19 1521.85H2015.44C2007.23 1558.47 2000.05 1586.74 1993.9 1606.66C1988.04 1626.59 1982.04 1644.75 1975.88 1661.16L1908.65 1836.94Z" fill="#7F3CB6"/>
<path opacity="0.5" d="M1878.54 2342.56C2115.08 2342.56 2306.84 2154.26 2306.84 1921.99C2306.84 1689.71 2115.08 1501.42 1878.54 1501.42C1642 1501.42 1450.24 1689.71 1450.24 1921.99C1450.24 2154.26 1642 2342.56 1878.54 2342.56Z" fill="url(#paint21_linear_335_2625)"/>
<path d="M1878.54 1454.01C1615.33 1454.01 1401.96 1663.53 1401.96 1921.99C1401.96 2180.45 1615.33 2389.97 1878.54 2389.97C2141.75 2389.97 2355.12 2180.45 2355.12 1921.99C2355.12 1663.53 2141.75 1454.01 1878.54 1454.01ZM1878.54 2321.23C1654 2321.23 1471.97 2142.48 1471.97 1921.99C1471.97 1701.49 1654 1522.75 1878.54 1522.75C2103.08 1522.75 2285.11 1701.49 2285.11 1921.99C2285.11 2142.48 2103.08 2321.23 1878.54 2321.23Z" fill="url(#paint22_linear_335_2625)"/>
<path d="M1438.2 1979.96C1436.6 1979.96 1435.22 1978.78 1435.02 1977.16C1433.6 1966.01 1432.61 1954.72 1432.06 1943.61C1431.97 1941.84 1433.33 1940.34 1435.1 1940.26C1437.2 1940.13 1438.37 1941.53 1438.46 1943.3C1438.99 1954.24 1439.97 1965.37 1441.37 1976.36C1441.59 1978.11 1440.36 1979.71 1438.6 1979.94C1438.47 1979.95 1438.32 1979.96 1438.2 1979.96ZM1441.46 1849.1C1441.28 1849.1 1441.09 1849.09 1440.9 1849.05C1439.16 1848.74 1438 1847.08 1438.31 1845.34C1443.72 1815.23 1452.36 1785.62 1464.02 1757.34L1464.03 1757.33C1532.73 1590.67 1695.44 1482.98 1878.54 1482.98C1963.92 1482.98 2046.92 1506.7 2118.57 1551.57C2120.07 1552.51 2120.52 1554.48 2119.58 1555.98C2118.66 1557.49 2116.68 1557.94 2115.17 1557C2044.54 1512.76 1962.71 1489.38 1878.54 1489.38C1698.04 1489.38 1537.66 1595.52 1469.95 1759.78C1469.94 1759.79 1469.94 1759.79 1469.94 1759.8C1458.45 1787.65 1449.93 1816.81 1444.61 1846.47C1444.34 1848.01 1442.99 1849.1 1441.46 1849.1Z" fill="white"/>
<path d="M1203.39 1668.75C1203.7 1670.89 1175.15 1810.79 1175.15 1810.79L1095.62 1792.79L1102.98 1656.17C1102.98 1656.17 1198.23 1632.97 1203.39 1668.75Z" fill="url(#paint23_linear_335_2625)"/>
<path d="M1120.86 1686.62L1111.36 1758.23C1111.24 1759.15 1111.24 1760.06 1111.37 1760.98C1112.17 1766.59 1116.35 1785.7 1135.64 1780.24C1153.14 1775.28 1169.19 1771.01 1180.28 1774.4C1185.26 1775.93 1188.26 1780.97 1187.22 1786.07C1184.62 1798.78 1178.24 1827.31 1168.91 1851.26C1167.02 1856.11 1161.7 1858.67 1156.69 1857.21C1141.61 1852.81 1110.05 1842.64 1086.58 1828.52C1083.4 1826.61 1081.51 1823.15 1081.67 1819.44C1082.43 1801.36 1084.54 1746.4 1082.76 1731C1081.09 1716.54 1063.35 1707.87 1055.64 1704.77C1053.11 1703.75 1051.13 1701.76 1050.12 1699.23C1046.55 1690.28 1041.63 1669.57 1067.72 1661.09C1073.18 1659.31 1076.06 1653.43 1074.12 1648.02C1070.25 1637.27 1068.62 1620.85 1088.81 1611.8C1109.32 1602.61 1124.65 1613.54 1132.92 1622.43C1136.26 1626.03 1141.63 1626.57 1145.78 1623.95C1148.15 1622.46 1151.19 1621.97 1154.87 1624.26C1159.82 1627.35 1166.39 1625.24 1168.94 1619.99C1173.86 1609.91 1183.87 1599.11 1203.96 1602.55C1239.6 1608.65 1243.64 1648.14 1234.23 1671.29C1224.83 1694.43 1186.57 1685.62 1167.37 1673.95C1152.77 1665.08 1133.84 1674.38 1125.6 1679.34C1122.99 1680.92 1121.27 1683.6 1120.86 1686.62Z" fill="url(#paint24_linear_335_2625)"/>
<path d="M1079.56 1757.11C1079.56 1757.11 1094.21 1716.08 1079.16 1706.03C1064.11 1695.98 1041.81 1701.2 1046.72 1730.92C1052.83 1767.89 1079.56 1757.11 1079.56 1757.11Z" fill="url(#paint25_linear_335_2625)"/>
<path d="M769.386 2342.47L851.407 2335.79L886.928 2368.53C886.928 2368.53 878.524 2380.15 852.251 2373.47C825.978 2366.79 789.99 2365.16 789.99 2365.16C789.99 2365.16 753.72 2381.51 753.278 2350.91L769.386 2342.47Z" fill="url(#paint26_linear_335_2625)"/>
<path d="M1404.71 2214.63C1411.8 2220.17 1436.11 2208.6 1450.98 2200.6C1458.23 2196.71 1461.74 2188.23 1459.25 2180.39C1455.67 2169.1 1449.71 2154.53 1442.36 2152.7C1430.17 2149.65 1375.48 2191.79 1404.71 2214.63Z" fill="url(#paint27_linear_335_2625)"/>
<path d="M629.249 2541.78C628.902 2541.78 628.546 2541.72 628.199 2541.6C594.311 2529.88 586.427 2509.86 585.783 2495.13C584.852 2473.59 598.383 2453.61 619.443 2445.39L723.624 2404.77C725.241 2404.13 727.113 2404.93 727.765 2406.59C728.409 2408.24 727.596 2410.1 725.944 2410.74L621.763 2451.36C603.261 2458.58 591.372 2476.05 592.185 2494.85C592.989 2513.39 605.81 2527.08 630.299 2535.55C631.967 2536.13 632.856 2537.95 632.272 2539.62C631.815 2540.95 630.579 2541.78 629.249 2541.78Z" fill="white"/>
<path d="M756.877 2398.44C755.598 2398.44 754.387 2397.66 753.896 2396.4C753.252 2394.75 754.065 2392.89 755.717 2392.25L769.223 2386.99C770.84 2386.34 772.72 2387.16 773.364 2388.81C774.008 2390.46 773.195 2392.31 771.543 2392.96L758.037 2398.22C757.656 2398.37 757.267 2398.44 756.877 2398.44Z" fill="white"/>
</g>
</g>
<defs>
<linearGradient id="paint0_linear_335_2625" x1="3571.43" y1="3987.57" x2="1144.43" y2="973.386" gradientUnits="userSpaceOnUse">
<stop stop-color="#589AFE"/>
<stop offset="1" stop-color="#0F96F8"/>
</linearGradient>
<linearGradient id="paint1_linear_335_2625" x1="3070.53" y1="1002.28" x2="2479.83" y2="3339.57" gradientUnits="userSpaceOnUse">
<stop stop-color="#4D2CCE"/>
<stop offset="1" stop-color="#7F3CB6"/>
</linearGradient>
<linearGradient id="paint2_linear_335_2625" x1="2608.75" y1="662.917" x2="2704.58" y2="2967.49" gradientUnits="userSpaceOnUse">
<stop stop-color="#343BE2"/>
<stop offset="1" stop-color="#49EFEF"/>
</linearGradient>
<linearGradient id="paint3_linear_335_2625" x1="834.364" y1="1859.01" x2="2636.8" y2="1859.01" gradientUnits="userSpaceOnUse">
<stop stop-color="#2B3582"/>
<stop offset="1" stop-color="#150E42"/>
</linearGradient>
<linearGradient id="paint4_linear_335_2625" x1="2154.62" y1="1168.1" x2="-1426.3" y2="5748.98" gradientUnits="userSpaceOnUse">
<stop stop-color="#F47960"/>
<stop offset="1" stop-color="#7D1E0A"/>
</linearGradient>
<linearGradient id="paint5_linear_335_2625" x1="1713.62" y1="591.788" x2="2044.6" y2="100.949" gradientUnits="userSpaceOnUse">
<stop stop-color="#2B3582"/>
<stop offset="1" stop-color="#150E42"/>
</linearGradient>
<linearGradient id="paint6_linear_335_2625" x1="842.235" y1="3245.87" x2="1031.06" y2="3245.87" gradientUnits="userSpaceOnUse">
<stop stop-color="#53D8FF"/>
<stop offset="1" stop-color="#3840F7"/>
</linearGradient>
<linearGradient id="paint7_linear_335_2625" x1="842.224" y1="3208.86" x2="1025.73" y2="3208.86" gradientUnits="userSpaceOnUse">
<stop stop-color="#2B3582"/>
<stop offset="1" stop-color="#150E42"/>
</linearGradient>
<linearGradient id="paint8_linear_335_2625" x1="859.669" y1="3157.19" x2="912.858" y2="3157.19" gradientUnits="userSpaceOnUse">
<stop stop-color="#F9B776"/>
<stop offset="1" stop-color="#F47960"/>
</linearGradient>
<linearGradient id="paint9_linear_335_2625" x1="465.789" y1="3241.79" x2="538.152" y2="3241.79" gradientUnits="userSpaceOnUse">
<stop stop-color="#53D8FF"/>
<stop offset="1" stop-color="#3840F7"/>
</linearGradient>
<linearGradient id="paint10_linear_335_2625" x1="466.316" y1="3186.08" x2="572.529" y2="3186.08" gradientUnits="userSpaceOnUse">
<stop stop-color="#2B3582"/>
<stop offset="1" stop-color="#150E42"/>
</linearGradient>
<linearGradient id="paint11_linear_335_2625" x1="521.524" y1="3112.85" x2="585.09" y2="3112.85" gradientUnits="userSpaceOnUse">
<stop stop-color="#F9B776"/>
<stop offset="1" stop-color="#F47960"/>
</linearGradient>
<linearGradient id="paint12_linear_335_2625" x1="374.28" y1="3298.74" x2="1209.33" y2="2353.98" gradientUnits="userSpaceOnUse">
<stop stop-color="#5AB6FF"/>
<stop offset="1" stop-color="#2F68E3"/>
</linearGradient>
<linearGradient id="paint13_linear_335_2625" x1="1535.55" y1="1205.84" x2="638.658" y2="2568.43" gradientUnits="userSpaceOnUse">
<stop stop-color="#CB236D"/>
<stop offset="1" stop-color="#4C246D"/>
</linearGradient>
<linearGradient id="paint14_linear_335_2625" x1="735.735" y1="2877.44" x2="766.194" y2="2816.52" gradientUnits="userSpaceOnUse">
<stop stop-color="#53D8FF"/>
<stop offset="1" stop-color="#3840F7"/>
</linearGradient>
<linearGradient id="paint15_linear_335_2625" x1="763.993" y1="2175.89" x2="890.079" y2="1869.68" gradientUnits="userSpaceOnUse">
<stop stop-color="#F9B776"/>
<stop offset="1" stop-color="#F47960"/>
</linearGradient>
<linearGradient id="paint16_linear_335_2625" x1="1378.56" y1="1102.51" x2="481.67" y2="2465.1" gradientUnits="userSpaceOnUse">
<stop stop-color="#CB236D"/>
<stop offset="1" stop-color="#4C246D"/>
</linearGradient>
<linearGradient id="paint17_linear_335_2625" x1="1722.02" y1="1328.59" x2="825.127" y2="2691.17" gradientUnits="userSpaceOnUse">
<stop stop-color="#CB236D"/>
<stop offset="1" stop-color="#4C246D"/>
</linearGradient>
<linearGradient id="paint18_linear_335_2625" x1="1236.95" y1="2205.24" x2="1415.16" y2="2205.24" gradientUnits="userSpaceOnUse">
<stop stop-color="#F9B776"/>
<stop offset="1" stop-color="#F47960"/>
</linearGradient>
<linearGradient id="paint19_linear_335_2625" x1="1063.73" y1="1729" x2="1061.78" y2="2061.79" gradientUnits="userSpaceOnUse">
<stop stop-color="#F9B776"/>
<stop offset="1" stop-color="#F47960"/>
</linearGradient>
<linearGradient id="paint20_linear_335_2625" x1="568.395" y1="2335.79" x2="1501.6" y2="2335.79" gradientUnits="userSpaceOnUse">
<stop stop-color="#2B3582"/>
<stop offset="1" stop-color="#150E42"/>
</linearGradient>
<linearGradient id="paint21_linear_335_2625" x1="1450.24" y1="1921.99" x2="2306.84" y2="1921.99" gradientUnits="userSpaceOnUse">
<stop stop-color="#B37CFF"/>
<stop offset="1" stop-color="#F895E7"/>
</linearGradient>
<linearGradient id="paint22_linear_335_2625" x1="1401.96" y1="1921.99" x2="2355.12" y2="1921.99" gradientUnits="userSpaceOnUse">
<stop stop-color="#2B3582"/>
<stop offset="1" stop-color="#150E42"/>
</linearGradient>
<linearGradient id="paint23_linear_335_2625" x1="1171.71" y1="1674.28" x2="1040.53" y2="1912.16" gradientUnits="userSpaceOnUse">
<stop stop-color="#F9B776"/>
<stop offset="1" stop-color="#F47960"/>
</linearGradient>
<linearGradient id="paint24_linear_335_2625" x1="1022.36" y1="1709.94" x2="1590.73" y2="1781.81" gradientUnits="userSpaceOnUse">
<stop stop-color="#CB236D"/>
<stop offset="1" stop-color="#4C246D"/>
</linearGradient>
<linearGradient id="paint25_linear_335_2625" x1="1211.67" y1="1526.5" x2="894.204" y2="1972.31" gradientUnits="userSpaceOnUse">
<stop stop-color="#F9B776"/>
<stop offset="1" stop-color="#F47960"/>
</linearGradient>
<linearGradient id="paint26_linear_335_2625" x1="860.087" y1="2287.53" x2="1022.2" y2="1994.83" gradientUnits="userSpaceOnUse">
<stop stop-color="#F9B776"/>
<stop offset="1" stop-color="#F47960"/>
</linearGradient>
<linearGradient id="paint27_linear_335_2625" x1="1396.23" y1="2184.31" x2="1460.04" y2="2184.31" gradientUnits="userSpaceOnUse">
<stop stop-color="#F9B776"/>
<stop offset="1" stop-color="#F47960"/>
</linearGradient>
<clipPath id="clip0_335_2625">
<rect width="3710" height="3710" fill="white" transform="translate(0.5)"/>
</clipPath>
</defs>
</svg>
