<svg width="36" height="36" viewBox="0 0 36 36" fill="none" xmlns="http://www.w3.org/2000/svg">
<path d="M4.5 9C4.5 6.51473 6.51473 4.5 9 4.5H21C23.4854 4.5 25.5 6.51473 25.5 9V21C25.5 23.4854 23.4854 25.5 21 25.5H9C6.51473 25.5 4.5 23.4854 4.5 21V9Z" stroke="black" stroke-width="3" stroke-linecap="round" stroke-linejoin="round"/>
<path d="M31.5 10.5V27C31.5 29.4854 29.4854 31.5 27 31.5H10.5" stroke="black" stroke-width="3" stroke-linecap="round" stroke-linejoin="round"/>
<path d="M4.5 18.5625L10.0018 13.0607C10.5876 12.4749 11.5374 12.4749 12.1232 13.0607L16.3125 17.25M16.3125 17.25L19.8456 13.7169C20.4314 13.1311 21.3811 13.1311 21.9669 13.7169L25.5 17.25M16.3125 17.25L19.2657 20.2032" stroke="black" stroke-width="3" stroke-linecap="round" stroke-linejoin="round"/>
</svg>
