<svg width="36" height="36" viewBox="0 0 36 36" fill="none" xmlns="http://www.w3.org/2000/svg">
<path d="M6 9C6 7.34314 7.34314 6 9 6H18H21.2574C22.053 6 22.8161 6.31607 23.3787 6.87869L29.1213 12.6213C29.6839 13.1839 30 13.947 30 14.7426V18V27C30 28.6569 28.6569 30 27 30H9C7.34314 30 6 28.6569 6 27V9Z" stroke="white" stroke-width="3" stroke-linecap="round" stroke-linejoin="round"/>
<path d="M12 6H19.5V10.5C19.5 11.3284 18.8284 12 18 12H13.5C12.6716 12 12 11.3284 12 10.5V6Z" stroke="white" stroke-width="3" stroke-linecap="round" stroke-linejoin="round"/>
<path d="M10.5 22.5C10.5 20.8431 11.8431 19.5 13.5 19.5H22.5C24.1569 19.5 25.5 20.8431 25.5 22.5V30H10.5V22.5Z" stroke="white" stroke-width="3" stroke-linecap="round" stroke-linejoin="round"/>
</svg>
